<svg width="168" height="154" viewBox="0 0 168 154" fill="none" xmlns="http://www.w3.org/2000/svg">
<g id="Group 51">
<path id="Rectangle 158" d="M48.1121 73C48.1121 82.9411 56.1709 91 66.1121 91L93.1121 91C95.8735 91 98.1121 88.7614 98.1121 86L98.1121 52C98.1121 46.4772 93.6349 42 88.1121 42L53.1121 42C50.3506 42 48.1121 44.2386 48.1121 47L48.1121 73Z" fill="#FFF1DA"/>
<g id="plane">
<g id="Group">
<path id="Vector" d="M96.6959 86.9413C95.3375 87.2456 94.0145 87.8091 92.8089 88.5965C89.6682 90.5978 87.8409 93.4546 88.7278 94.9767C89.6147 96.4988 92.8798 96.1095 96.0206 94.1082C97.2424 93.3486 98.3277 92.3779 99.2099 91.2559C99.6193 90.7138 99.6928 90.0383 99.3976 89.5334L98.2454 87.556C97.9522 87.0495 97.3441 86.8086 96.6959 86.9413Z" fill="#D5D6DB"/>
<path id="Vector_2" d="M88.809 59.9483C87.824 60.1691 86.8646 60.5779 85.9903 61.1489C83.7135 62.5997 82.3877 64.6711 83.0303 65.7739C83.6729 66.8767 86.0414 66.5942 88.318 65.1435C89.2039 64.5925 89.9908 63.8882 90.6306 63.0746C90.9271 62.6816 90.9802 62.1923 90.7662 61.8262L89.9319 60.3944C89.7197 60.0273 89.279 59.8522 88.809 59.9483Z" fill="#D5D6DB"/>
<path id="Vector_3" d="M75.9947 61.0786C75.7755 61.0541 75.5417 61.1126 75.3389 61.2421L69.9907 64.6503C69.5434 64.9345 69.3644 65.4818 69.5913 65.873C69.6432 65.9626 69.7142 66.0392 69.8004 66.0982L82.9821 75.1831L100.816 63.8184L75.9947 61.0786Z" fill="#029BC5"/>
<path id="Vector_4" d="M132.371 59.794L83.8396 90.3461L55.1269 101.772L40.4837 104.682L38.8728 101.945L119.768 51.9985C122.179 50.5036 124.864 49.586 127.553 49.3389C128.731 49.237 129.894 49.2762 131.015 49.455C132.009 49.6057 132.952 49.8964 133.815 50.3185C134.779 50.7967 136.614 50.8519 137.208 51.8047C137.21 51.8032 138.612 56.1776 132.371 59.794Z" fill="#E1E6E9"/>
<path id="Vector_5" d="M84.483 86.3036L63.4877 119.774C63.2255 120.244 63.3811 120.77 63.835 120.949C64.1136 121.059 64.4545 121.016 64.7409 120.834L70.0849 117.444C71.1128 116.791 72.0229 115.963 72.759 115.009L113.475 67.1404L84.483 86.3036Z" fill="#029BC5"/>
<path id="Vector_6" d="M31.5034 85.1861C31.1532 85.0664 30.7364 85.1285 30.3845 85.3525L25.9671 88.1659C25.3651 88.549 25.1253 89.2854 25.4311 89.8111C25.4894 89.911 25.5651 89.999 25.6559 90.0714L38.0326 99.9838L51.0456 91.8557L31.5034 85.1861Z" fill="#029BC5"/>
<path id="Vector_7" d="M42.1809 101.771L35.5195 111.1C35.4218 111.234 35.4448 111.402 35.5707 111.476C35.6615 111.529 35.7856 111.519 35.8864 111.452L40.0146 108.836C40.0467 108.815 40.0757 108.79 40.0997 108.761L49.8333 96.926L42.1809 101.771Z" fill="#029BC5"/>
<path id="Vector_8" d="M130.218 49.8572C129.064 49.6718 127.866 49.6322 126.653 49.7388C125.472 51.3899 124.717 53.2446 124.464 55.118C124.446 55.4943 124.749 55.7652 125.142 55.723C125.264 55.7098 125.385 55.6669 125.495 55.5981L133.103 50.7538C132.213 50.3152 131.242 50.0134 130.218 49.8572Z" fill="#029BC5"/>
<path id="Vector_9" d="M113.639 58.7654L118.606 55.6284L123.233 63.4974L118.266 66.6344L113.639 58.7654Z" fill="#D5D6DB"/>
<g id="Group_2">
<path id="Vector_10" d="M110.514 61.8777C109.915 62.2569 109.676 62.9857 109.98 63.5054L110.472 64.3474C110.796 64.8538 111.535 64.9429 112.123 64.5462C112.683 64.1684 112.909 63.4817 112.639 62.9747L112.146 62.1327C111.843 61.6134 111.112 61.4992 110.514 61.8777Z" fill="#3A556A"/>
<path id="Vector_11" d="M106.049 64.6502C105.451 65.0293 105.211 65.7581 105.515 66.2778L106.008 67.1198C106.331 67.6263 107.071 67.7153 107.659 67.3186C108.219 66.9408 108.444 66.2542 108.174 65.7471L107.682 64.9052C107.378 64.3861 106.647 64.2718 106.049 64.6502Z" fill="#3A556A"/>
<path id="Vector_12" d="M101.583 67.4235C100.985 67.8031 100.747 68.531 101.051 69.0503L101.543 69.8922C101.867 70.3987 102.606 70.4877 103.194 70.091C103.754 69.7133 103.98 69.0266 103.71 68.5196L103.218 67.6776C102.914 67.1579 102.182 67.0442 101.583 67.4235Z" fill="#3A556A"/>
<path id="Vector_13" d="M97.1189 70.1959C96.5211 70.5756 96.2827 71.3035 96.5863 71.8228L97.0786 72.6647C97.4024 73.1712 98.1417 73.2603 98.73 72.8636C99.2898 72.4858 99.5153 71.7991 99.2455 71.2921L98.7532 70.4501C98.449 69.9305 97.7175 69.8167 97.1189 70.1959Z" fill="#3A556A"/>
<path id="Vector_14" d="M92.655 72.9686C92.0567 73.3484 91.8182 74.0766 92.122 74.5961L92.6146 75.4384C92.9183 75.9577 93.6495 76.0714 94.2479 75.6924C94.8463 75.3134 95.0852 74.5853 94.7815 74.066L94.2889 73.2237C93.986 72.7039 93.255 72.5894 92.6562 72.9678C92.6557 72.9681 92.6555 72.9682 92.655 72.9686Z" fill="#3A556A"/>
<path id="Vector_15" d="M88.1906 75.741C87.5924 76.1208 87.3539 76.8491 87.6577 77.3686L88.1503 78.2109C88.4539 78.7302 89.1852 78.8439 89.7836 78.4649C90.3819 78.0859 90.6208 77.3577 90.3172 76.8385L89.8246 75.9961C89.5216 75.4764 88.7906 75.3619 88.1919 75.7402C88.1914 75.7405 88.1909 75.7409 88.1906 75.741Z" fill="#3A556A"/>
<path id="Vector_16" d="M83.726 78.5135C83.1278 78.8933 82.8893 79.6215 83.1931 80.141L83.6856 80.9833C83.9901 81.5021 84.7217 81.6147 85.3194 81.2352C85.9161 80.8563 86.1545 80.1297 85.8522 79.6111L85.3597 78.7688C85.0561 78.2491 84.3249 78.1348 83.726 78.5135Z" fill="#3A556A"/>
<path id="Vector_17" d="M79.2614 81.2859C78.6632 81.6658 78.4247 82.394 78.7285 82.9135L79.221 83.7558C79.5255 84.2746 80.2571 84.3872 80.8548 84.0077C81.4515 83.6289 81.6899 82.9022 81.3876 82.3835L80.8951 81.5412C80.5915 81.0215 79.8603 80.9072 79.2614 81.2859Z" fill="#3A556A"/>
<path id="Vector_18" d="M74.797 84.0584C74.1988 84.4382 73.9603 85.1664 74.2641 85.6859L74.7567 86.5282C75.0611 87.047 75.7927 87.1596 76.3904 86.7801C76.9872 86.4013 77.2256 85.6746 76.9233 85.156L76.4307 84.3137C76.1269 83.7942 75.3957 83.6799 74.797 84.0584Z" fill="#3A556A"/>
<path id="Vector_19" d="M70.3312 86.8316C69.7329 87.2106 69.494 87.9388 69.7976 88.458L69.7983 88.4591L70.2909 89.3015C70.5953 89.8203 71.3269 89.9328 71.9246 89.5534C72.5213 89.1745 72.7597 88.4478 72.4575 87.9292L71.9649 87.0869C71.6613 86.5672 70.9301 86.4529 70.3312 86.8316Z" fill="#3A556A"/>
<path id="Vector_20" d="M65.8681 89.6033C65.2697 89.9823 65.0308 90.7105 65.3345 91.2297L65.3352 91.2308L65.8277 92.0732C66.1322 92.5919 66.8638 92.7045 67.4615 92.325C68.0583 91.9462 68.2967 91.2196 67.9944 90.7009L67.5018 89.8586C67.198 89.3391 66.4667 89.2248 65.8681 89.6033Z" fill="#3A556A"/>
</g>
</g>
</g>
</g>
</svg>
