<svg width="55" height="16" viewBox="0 0 55 16" fill="none" xmlns="http://www.w3.org/2000/svg">
<g id="Vector">
<path d="M6.3863 2.88009H3.57829V4.00009H5.0743C4.87429 4.53609 4.3863 4.86409 3.6423 4.86409C2.5543 4.86409 1.8823 4.16809 1.8823 3.21609C1.8823 2.23209 2.5863 1.53609 3.5303 1.53609C4.1623 1.53609 4.6663 1.82409 4.8983 2.19209L5.98629 1.56809C5.5143 0.816086 4.6103 0.288086 3.5383 0.288086C1.8903 0.288086 0.602295 1.58409 0.602295 3.20809C0.602295 4.81609 1.86629 6.11209 3.6263 6.11209C5.1943 6.11209 6.3863 5.07209 6.3863 3.36009V2.88009Z" fill="white"/>
<path d="M7.98792 4.76809V3.77609H9.98792V2.56009H7.98792V1.63209H10.1879V0.400086H6.70792V6.00009H10.2279V4.76809H7.98792Z" fill="white"/>
<path d="M14.3101 0.400086H10.1501V1.63209H11.5901V6.00009H12.8701V1.63209H14.3101V0.400086Z" fill="white"/>
<path d="M16.0704 0.400086V6.00009H17.3504V0.400086H16.0704Z" fill="white"/>
<path d="M21.6726 0.400086H17.5126V1.63209H18.9526V6.00009H20.2326V1.63209H21.6726V0.400086Z" fill="white"/>
<path d="M26.1049 6.11209C27.7129 6.11209 29.0169 4.84809 29.0169 3.20009C29.0169 1.55209 27.7129 0.288086 26.1049 0.288086C24.4969 0.288086 23.1929 1.55209 23.1929 3.20009C23.1929 4.84809 24.4969 6.11209 26.1049 6.11209ZM26.1049 4.86409C25.1929 4.86409 24.4729 4.20009 24.4729 3.20009C24.4729 2.20009 25.1929 1.53609 26.1049 1.53609C27.0169 1.53609 27.7369 2.20009 27.7369 3.20009C27.7369 4.20009 27.0169 4.86409 26.1049 4.86409Z" fill="white"/>
<path d="M32.4576 0.400086V3.44009L30.2976 0.400086H29.3376V6.00009H30.6176V2.96009L32.7776 6.00009H33.7376V0.400086H32.4576Z" fill="white"/>
<path d="M6.3863 12.3921V12.6081C6.3863 13.3068 6.13829 13.8961 5.64229 14.3761C5.14629 14.8508 4.49296 15.0881 3.6823 15.0881C2.82896 15.0881 2.12496 14.8108 1.57029 14.2561C1.01563 13.6961 0.738295 13.0108 0.738295 12.2001C0.738295 11.3894 1.01296 10.7068 1.56229 10.1521C2.11163 9.59209 2.80763 9.31209 3.6503 9.31209C4.1623 9.31209 4.63163 9.43475 5.0583 9.68009C5.4903 9.92542 5.82363 10.2534 6.0583 10.6641L5.68229 10.8881C5.49563 10.5361 5.2183 10.2534 4.8503 10.0401C4.48763 9.82675 4.08763 9.72009 3.6503 9.72009C2.92496 9.72009 2.32763 9.96009 1.85829 10.4401C1.39429 10.9148 1.16229 11.5014 1.16229 12.2001C1.16229 12.8988 1.39696 13.4881 1.86629 13.9681C2.33563 14.4428 2.94096 14.6801 3.6823 14.6801C4.3383 14.6801 4.86896 14.5014 5.27429 14.1441C5.67963 13.7868 5.9063 13.3361 5.9543 12.7921H3.57829V12.3921H6.3863Z" fill="white"/>
<path d="M12.0649 14.2481C11.5049 14.8081 10.8223 15.0881 10.0169 15.0881C9.21159 15.0881 8.52892 14.8081 7.96892 14.2481C7.40892 13.6828 7.12892 13.0001 7.12892 12.2001C7.12892 11.4001 7.40892 10.7201 7.96892 10.1601C8.52892 9.59475 9.21159 9.31209 10.0169 9.31209C10.8223 9.31209 11.5049 9.59475 12.0649 10.1601C12.6249 10.7201 12.9049 11.4001 12.9049 12.2001C12.9049 13.0001 12.6249 13.6828 12.0649 14.2481ZM8.26492 13.9601C8.74492 14.4401 9.32892 14.6801 10.0169 14.6801C10.7049 14.6801 11.2863 14.4401 11.7609 13.9601C12.2409 13.4748 12.4809 12.8881 12.4809 12.2001C12.4809 11.5121 12.2409 10.9281 11.7609 10.4481C11.2863 9.96275 10.7049 9.72009 10.0169 9.72009C9.32892 9.72009 8.74492 9.96275 8.26492 10.4481C7.79025 10.9281 7.55292 11.5121 7.55292 12.2001C7.55292 12.8881 7.79025 13.4748 8.26492 13.9601Z" fill="white"/>
<path d="M18.5962 14.2481C18.0362 14.8081 17.3535 15.0881 16.5482 15.0881C15.7428 15.0881 15.0602 14.8081 14.5002 14.2481C13.9402 13.6828 13.6602 13.0001 13.6602 12.2001C13.6602 11.4001 13.9402 10.7201 14.5002 10.1601C15.0602 9.59475 15.7428 9.31209 16.5482 9.31209C17.3535 9.31209 18.0362 9.59475 18.5962 10.1601C19.1562 10.7201 19.4362 11.4001 19.4362 12.2001C19.4362 13.0001 19.1562 13.6828 18.5962 14.2481ZM14.7962 13.9601C15.2762 14.4401 15.8602 14.6801 16.5482 14.6801C17.2362 14.6801 17.8175 14.4401 18.2922 13.9601C18.7722 13.4748 19.0122 12.8881 19.0122 12.2001C19.0122 11.5121 18.7722 10.9281 18.2922 10.4481C17.8175 9.96275 17.2362 9.72009 16.5482 9.72009C15.8602 9.72009 15.2762 9.96275 14.7962 10.4481C14.3215 10.9281 14.0842 11.5121 14.0842 12.2001C14.0842 12.8881 14.3215 13.4748 14.7962 13.9601Z" fill="white"/>
<path d="M25.8394 12.3921V12.6081C25.8394 13.3068 25.5914 13.8961 25.0954 14.3761C24.5994 14.8508 23.9461 15.0881 23.1354 15.0881C22.2821 15.0881 21.5781 14.8108 21.0234 14.2561C20.4688 13.6961 20.1914 13.0108 20.1914 12.2001C20.1914 11.3894 20.4661 10.7068 21.0154 10.1521C21.5648 9.59209 22.2608 9.31209 23.1034 9.31209C23.6154 9.31209 24.0848 9.43475 24.5114 9.68009C24.9434 9.92542 25.2768 10.2534 25.5114 10.6641L25.1354 10.8881C24.9488 10.5361 24.6714 10.2534 24.3034 10.0401C23.9408 9.82675 23.5408 9.72009 23.1034 9.72009C22.3781 9.72009 21.7808 9.96009 21.3114 10.4401C20.8474 10.9148 20.6154 11.5014 20.6154 12.2001C20.6154 12.8988 20.8501 13.4881 21.3194 13.9681C21.7888 14.4428 22.3941 14.6801 23.1354 14.6801C23.7914 14.6801 24.3221 14.5014 24.7274 14.1441C25.1328 13.7868 25.3594 13.3361 25.4074 12.7921H23.0314V12.3921H25.8394Z" fill="white"/>
<path d="M27.326 14.6001H29.966V15.0001H26.902V9.40009H27.326V14.6001Z" fill="white"/>
<path d="M31.2714 14.6001H34.0714V15.0001H30.8474V9.40009H34.0314V9.80009H31.2714V11.9761H33.8314V12.3761H31.2714V14.6001Z" fill="white"/>
<path d="M39.1498 9.40009C39.6511 9.40009 40.0671 9.56542 40.3978 9.89609C40.7285 10.2268 40.8938 10.6401 40.8938 11.1361C40.8938 11.6321 40.7285 12.0454 40.3978 12.3761C40.0671 12.7014 39.6511 12.8641 39.1498 12.8641H37.6698V15.0001H37.2458V9.40009H39.1498ZM39.1498 12.4641C39.5338 12.4641 39.8485 12.3388 40.0938 12.0881C40.3445 11.8374 40.4698 11.5201 40.4698 11.1361C40.4698 10.7468 40.3445 10.4268 40.0938 10.1761C39.8485 9.92542 39.5338 9.80009 39.1498 9.80009H37.6698V12.4641H39.1498Z" fill="white"/>
<path d="M42.3651 14.6001H45.0051V15.0001H41.9411V9.40009H42.3651V14.6001Z" fill="white"/>
<path d="M49.8107 15.0001L49.2667 13.5761H46.4587L45.9147 15.0001H45.4667L47.6427 9.40009H48.0907L50.2587 15.0001H49.8107ZM46.6187 13.1761H49.1147L47.8667 9.92009L46.6187 13.1761Z" fill="white"/>
<path d="M54.2432 9.40009L52.2032 12.6961V15.0001H51.7792V12.6961L49.7392 9.40009H50.2192L51.9952 12.2881L53.7632 9.40009H54.2432Z" fill="white"/>
</g>
</svg>
